<?xml version="1.0" encoding="iso-8859-1"?>
<!-- Generator: Adobe Illustrator 18.0.0, SVG Export Plug-In . SVG Version: 6.00 Build 0)  -->
<!DOCTYPE svg PUBLIC "-//W3C//DTD SVG 1.1//EN" "http://www.w3.org/Graphics/SVG/1.1/DTD/svg11.dtd">
<svg xmlns="http://www.w3.org/2000/svg" xmlns:xlink="http://www.w3.org/1999/xlink" version="1.1" id="Capa_1" x="0px" y="0px" viewBox="0 0 459.387 459.387" style="enable-background:new 0 0 459.387 459.387;" xml:space="preserve" width="512px" height="512px">
<g>
	<path d="M452.887,345.141H423.97V163.549c0-31.946-25.99-57.936-57.937-57.936h-1.998c-13.554-38.817-50.531-66.744-93.913-66.744   c-52.226,0-95.176,40.469-99.142,91.694h-49.89c-36.748,0-68.065,23.625-79.609,56.477C18.21,189.446,0,209.169,0,233.066v63.683   c0,3.59,2.91,6.5,6.5,6.5s6.5-2.91,6.5-6.5v-63.683c0-15.463,10.603-28.495,24.92-32.21c-0.773,4.58-1.197,9.278-1.197,14.075   v199.087c0,3.59,2.91,6.5,6.5,6.5h86.511c3.59,0,6.5-2.91,6.5-6.5V350.87c17.708,4.479,36.303,6.746,55.401,6.746   c15.344,0,30.458-1.48,45.045-4.406v60.808c0,3.59,2.91,6.5,6.5,6.5h86.511c3.59,0,6.5-2.91,6.5-6.5v-120.27   c2.96,0.496,5.996,0.768,9.095,0.768c7.548,0,14.644,2.939,19.98,8.276c5.337,5.337,8.276,12.433,8.276,19.98v34.32   c0,21.215,17.259,38.475,38.474,38.475h40.87c3.59,0,6.5-2.91,6.5-6.5v-37.426C459.387,348.051,456.477,345.141,452.887,345.141z    M270.123,51.869c12.999,0,25.333,2.89,36.404,8.051c-30.365-1.314-60.23,9.999-82.507,32.277   c-22.289,22.281-33.606,52.147-32.289,82.513c-5.161-11.07-8.049-23.403-8.049-36.4C183.681,90.647,222.458,51.869,270.123,51.869z    M446.387,382.567h-34.37c-14.046,0-25.474-11.428-25.474-25.475v-34.32c0-11.02-4.292-21.38-12.084-29.173   c-7.792-7.792-18.153-12.084-29.173-12.084c-23.072,0-41.842-18.77-41.842-41.842v-6.55c0-3.59-2.91-6.5-6.5-6.5s-6.5,2.91-6.5,6.5   v6.55c0,22.381,13.483,41.661,32.747,50.178v117.666h-73.511v-62.395c0-1.991-0.913-3.873-2.477-5.105   c-1.565-1.233-3.608-1.681-5.543-1.215c-16.042,3.857-32.873,5.813-50.025,5.813c-20.87,0-41.073-2.861-60.048-8.504   c-1.966-0.585-4.095-0.207-5.739,1.02c-1.645,1.227-2.614,3.158-2.614,5.21v65.175H49.724V214.931   c0-39.352,32.015-71.367,71.367-71.367h49.729c2.74,52.4,46.233,94.189,99.303,94.189c3.59,0,6.5-2.91,6.5-6.5s-2.91-6.5-6.5-6.5   c-23.712,0-45.222-9.599-60.855-25.112c-11.058-34.836-1.965-72.351,23.943-98.25c25.893-25.893,63.404-34.986,98.237-23.94   c15.516,15.634,25.117,37.146,25.117,60.86c0,3.59,2.91,6.5,6.5,6.5s6.5-2.91,6.5-6.5c0-6.728-0.675-13.301-1.955-19.658   c24.05,0.835,43.361,20.647,43.361,44.896v182.416c0,6.714,5.462,12.176,12.176,12.176h23.241V382.567z" fill="#D80027"/>
	<path d="M377.332,205.104h-18.713c-3.59,0-6.5,2.91-6.5,6.5s2.91,6.5,6.5,6.5h18.713c3.59,0,6.5-2.91,6.5-6.5   S380.921,205.104,377.332,205.104z" fill="#D80027"/>
</g>
<g>
</g>
<g>
</g>
<g>
</g>
<g>
</g>
<g>
</g>
<g>
</g>
<g>
</g>
<g>
</g>
<g>
</g>
<g>
</g>
<g>
</g>
<g>
</g>
<g>
</g>
<g>
</g>
<g>
</g>
</svg>
